<?xml version="1.0" encoding="UTF-8"?><svg id="Layer_1" xmlns="http://www.w3.org/2000/svg" viewBox="0 0 136.12 159.63"><g id="B8EYUw"><path d="m72.75,119.19c-.37-9.4-.9-18.79-1.34-28.19-.41-8.68-.78-17.37-1.18-26.05-.4-8.64-.86-17.29-1.22-25.93-.02-.49-.02-.99,0-1.5-.59.02-1.17.03-1.76.03-.88,0-1.71-.15-2.55-.33-.05.89-.03,1.83.08,2.8.56,4.85.51,9.77.75,14.65.57,11.95,1.18,23.9,1.72,35.85.47,10.48.91,20.96,1.29,31.44.18,4.92-.59,9.67-2.83,14.13-4.59,9.13-14.1,11.79-22.72,6.32-4.1-2.6-7.15-6.19-9.44-10.44-1.66-3.09-3.19-6.26-3.46-9.83-.27-3.49-.36-6.99-.53-10.48-.33-6.84-.65-13.68-.98-20.52-.34-6.88-.69-13.75-1.03-20.63-.31-6.2-.61-12.4-.91-18.6-.08-1.75-.14-3.49-.22-5.26.29-.03.44-.06.58-.06,6.17.05,12.34.12,18.51.16.7,0,1.44-.26,2.1-.12,1.02.22,1.89.21,2.54-.66.68-.91.45-1.83-.08-2.74-7.76-13.25-15.51-26.5-23.27-39.75-.37-.64-.98-1.16-1.24-1.83-.72-1.84-2.58-2.29-3.75-.68-1.66,2.28-3.37,4.57-4.62,7.08-4.24,8.56-8.28,17.22-12.4,25.83-1.49,3.12-3.01,6.23-4.48,9.36-.9,1.92.21,3.44,2.3,3.23.41-.04.82-.06,1.24-.05,5.27.03,10.53.05,15.8.09.82,0,1.64.07,2.5.11.03.28.06.49.08.71.21,4.21.42,8.42.63,12.63.3,6.01.61,12.02.91,18.04.3,6.09.57,12.18.87,18.27.34,6.99.64,13.98,1.05,20.97.18,3.03-.04,6.08.92,9.06,2.31,7.15,5.98,13.4,11.95,18.08,4.77,3.74,10.13,5.81,16.28,4.84,2.95-.47,5.47-1.51,7.63-3h0s0,0,0,0c3.08-2.12,5.44-5.17,7.27-8.87,2.84-5.75,3.26-11.93,3.01-18.18Z" fill="#653c17" stroke-width="0"/></g><g id="B8EYUw-2"><path d="m133.54,113.51c-.41.03-.83.04-1.24.03-5.27-.12-10.53-.24-15.79-.37-.82-.02-1.63-.1-2.5-.15-.03-.28-.06-.49-.06-.71-.14-4.21-.27-8.42-.4-12.64-.19-6.02-.4-12.03-.59-18.05-.19-6.09-.35-12.19-.54-18.28-.21-6.99-.39-13.99-.68-20.98-.13-3.03.15-6.08-.76-9.07-2.18-7.19-5.74-13.5-11.63-18.29-4.7-3.82-10.03-5.99-16.19-5.13-7.17,1-11.9,5.37-15.11,11.6-2.64,5.1-3.32,10.6-3.34,16.18.68,0,1.37,0,2.05,0,.74,0,1.49,0,2.23,0,0-.25-.01-.51-.02-.76-.09-4.92.77-9.66,3.08-14.07,4.75-9.05,14.31-11.54,22.83-5.92,4.06,2.68,7.04,6.32,9.25,10.6,1.61,3.12,3.07,6.32,3.28,9.89.2,3.49.24,6.99.34,10.49.21,6.84.4,13.69.62,20.53.21,6.88.44,13.76.66,20.65.2,6.21.39,12.41.58,18.62.05,1.75.08,3.49.12,5.27-.29.02-.44.05-.58.04-6.17-.16-12.33-.34-18.5-.49-.7-.02-1.45.24-2.11.08-1.01-.24-1.88-.24-2.55.62-.69.9-.49,1.82.03,2.74,7.52,13.38,15.03,26.77,22.56,40.15.36.64.96,1.18,1.21,1.85.69,1.86,2.54,2.33,3.74.74,1.7-2.25,3.45-4.51,4.74-6.99,4.39-8.48,8.59-17.07,12.86-25.61,1.55-3.09,3.12-6.18,4.64-9.28.93-1.91-.15-3.45-2.24-3.27Z" fill="#653c17" stroke-width="0"/></g></svg>