<?xml version="1.0" encoding="UTF-8"?><svg id="Layer_1" xmlns="http://www.w3.org/2000/svg" viewBox="0 0 2.02 1.47"><g id="dEPwOI.tif"><path d="m1.07,1.23c.05-.06.09-.12.14-.18.09-.1.2-.2.3-.29.06-.05.12-.09.17-.13.03-.02.05-.04.05-.07,0-.03-.03-.05-.07-.05-.03,0-.06,0-.09.02-.07.03-.13.07-.18.12-.1.09-.19.18-.28.26-.11.1-.18.21-.25.33-.03.06-.07.12-.11.18-.02.03-.04.05-.08.06-.05.02-.1-.03-.09-.07.01-.03.03-.07.05-.1.03-.05.07-.11.1-.16.02-.03.02-.05-.01-.08-.02-.02-.05-.04-.07-.07-.07-.07-.09-.15-.08-.24,0-.04.02-.07.03-.1.02-.07.08-.11.13-.16.12-.1.27-.16.44-.2.07-.02.14-.03.21-.03.09,0,.17-.01.26-.01.11,0,.22,0,.33,0,0,0,.02,0,.02,0,.01,0,.02,0,.02.02,0,0,0,0,0,.01,0,.14,0,.28,0,.42,0,.06-.03.12-.06.18-.06.11-.14.21-.28.27-.09.04-.18.06-.28.07-.09,0-.17.01-.26,0-.02,0-.05,0-.08,0Z" fill="#339" stroke-width="0"/><path d="m.99.26c-.07.03-.12.07-.17.11-.04.03-.08.06-.12.09-.03.02-.04.02-.06,0-.04-.05-.08-.09-.13-.13-.02-.02-.04-.02-.07-.02-.02,0-.04,0-.06.02-.03.01-.04.04-.03.06.01.02.03.05.05.07.05.06.09.11.14.17.01.02.01.03,0,.05-.01.03-.02.05-.02.08,0,.05,0,.1,0,.15,0,.02,0,.03-.03.02-.09-.02-.17-.04-.25-.08-.13-.07-.21-.17-.24-.3C-.01.44,0,.33.03.23.05.16.07.09.1.02.1,0,.11,0,.13,0c.18.04.35.07.53.11.11.02.2.07.29.12.01,0,.02.01.03.02,0,0,0,0,0,0Z" fill="#339" stroke-width="0"/></g></svg>