<?xml version="1.0" encoding="UTF-8" standalone="no"?>
<svg
   id="Layer_1"
   viewBox="0 0 883.94 849.65"
   version="1.1"
   xmlns:xlink="http://www.w3.org/1999/xlink"
   xmlns="http://www.w3.org/2000/svg"
   xmlns:svg="http://www.w3.org/2000/svg">
  <defs
     id="defs12">
    <linearGradient
       id="linearGradient25">
      <stop
         style="stop-color:#b13030;stop-opacity:1;"
         offset="0"
         id="stop25" />
      <stop
         style="stop-color:#971f1f;stop-opacity:1;"
         offset="0.73352844"
         id="stop27" />
      <stop
         style="stop-color:#7d1c1c;stop-opacity:1;"
         offset="1"
         id="stop26" />
    </linearGradient>
    <linearGradient
       id="linearGradient18">
      <stop
         style="stop-color:#ff8a8a;stop-opacity:1;"
         offset="0"
         id="stop19" />
      <stop
         style="stop-color:#b12d2d;stop-opacity:1;"
         offset="0.30315915"
         id="stop21" />
      <stop
         style="stop-color:#660f0f;stop-opacity:1;"
         offset="0.49527541"
         id="stop28" />
      <stop
         style="stop-color:#570909;stop-opacity:1;"
         offset="1"
         id="stop20" />
    </linearGradient>
    <linearGradient
       id="linearGradient17">
      <stop
         style="stop-color:#b81515;stop-opacity:1;"
         offset="0"
         id="stop17" />
      <stop
         style="stop-color:#932020;stop-opacity:1;"
         offset="1"
         id="stop18" />
    </linearGradient>
    <filter
       style="color-interpolation-filters:sRGB"
       id="filter14"
       x="-0.040203886"
       y="-0.052154021"
       width="1.0804078"
       height="1.104308">
      <feGaussianBlur
         stdDeviation="5.4074936"
         id="feGaussianBlur14" />
    </filter>
    <mask
       maskUnits="userSpaceOnUse"
       id="mask16">
      <path
         d="m 870.45571,490.1066 c -1.26737,57.7498 6.44343,124.9022 -38.22173,169.8219 -39.82813,25.5133 -76.5681,55.886 -106.82878,92.6821 -43.5641,52.4852 -104.94261,97.8542 -176.51864,93.6413 -155.81502,-5.46528 325.47949,-539.96395 321.56915,-356.1453 z"
         fill="#b12d2d"
         stroke-width="0"
         id="path16"
         style="fill:#ffffff;fill-opacity:1" />
    </mask>
    <filter
       style="color-interpolation-filters:sRGB"
       id="filter16"
       x="-0.028128454"
       y="-0.025733607"
       width="1.0562569"
       height="1.0514672">
      <feGaussianBlur
         stdDeviation="5.6153374"
         id="feGaussianBlur16" />
    </filter>
    <radialGradient
       xlink:href="#linearGradient17"
       id="radialGradient18"
       cx="303.06787"
       cy="252.07031"
       fx="303.06787"
       fy="252.07031"
       r="358.62384"
       gradientTransform="matrix(1.2540456,-0.77274339,0.42781304,0.69427583,-196.67098,312.9462)"
       gradientUnits="userSpaceOnUse" />
    <linearGradient
       xlink:href="#linearGradient18"
       id="linearGradient20"
       x1="227.50336"
       y1="164.75079"
       x2="596.37378"
       y2="666.86664"
       gradientUnits="userSpaceOnUse" />
    <radialGradient
       xlink:href="#linearGradient25"
       id="radialGradient26"
       cx="383.50092"
       cy="273.39526"
       fx="383.50092"
       fy="273.39526"
       r="308.11187"
       gradientTransform="matrix(1.6968991,-0.92408339,0.71451653,1.3120702,-483.51194,276.99352)"
       gradientUnits="userSpaceOnUse" />
    <filter
       style="color-interpolation-filters:sRGB"
       id="filter27"
       x="-0.041825548"
       y="-0.044006185"
       width="1.0836511"
       height="1.0880124">
      <feGaussianBlur
         stdDeviation="16.069059"
         id="feGaussianBlur27" />
    </filter>
    <mask
       maskUnits="userSpaceOnUse"
       id="mask27">
      <path
         d="M 300.59,840.04 C 247.27904,808.5552 224.46292,734.1186 157.21714,725.1084 108.4406,710.9818 99.553045,655.1738 88.643861,613.0324 67.172736,562.8119 11.806853,531.4973 5.7352808,473.7541 -12.259693,397.6792 16.960195,314.8087 75.745078,263.9887 120.77988,226.5307 117.00705,165.4818 138.11462,115.926 159.14734,62.63849 222.95352,59.43114 271.32116,50.75262 323.1203,45.53535 373.60272,32.66718 421.2258,11.71398 470.32482,-5.51701 532.30579,-6.28725 570.64351,34.1763 c 41.17586,39.33876 92.31042,66.41751 148.93344,74.39623 51.82018,9.23604 97.56787,50.76957 98.82107,105.72847 0.89047,46.2158 26.05118,84.1722 50.98152,120.9493 31.23179,48.6026 1.43845,103.0376 1.07617,154.8563 -1.26737,57.7498 6.44343,124.9022 -38.22173,169.8219 -39.82813,25.5133 -76.5681,55.886 -106.82878,92.6821 -43.5641,52.4852 -104.94261,97.8542 -176.51864,93.6413 -59.74866,-1.8116 -119.84457,-10.5827 -179.11224,1.7969 -23.11191,2.6678 -48.3423,4.381 -69.18432,-8.0088 z"
         fill="#b12d2d"
         stroke-width="0"
         id="path28"
         style="fill:#ffffff;fill-opacity:1" />
    </mask>
    <filter
       style="color-interpolation-filters:sRGB"
       id="filter28"
       x="-0.058980166"
       y="-0.63952299"
       width="1.1179603"
       height="2.279046">
      <feGaussianBlur
         stdDeviation="4.7894447"
         id="feGaussianBlur28" />
    </filter>
  </defs>
  <path
     d="M 300.59,840.04 C 247.27904,808.5552 224.46292,734.1186 157.21714,725.1084 108.4406,710.9818 99.553045,655.1738 88.643861,613.0324 67.172736,562.8119 11.806853,531.4973 5.7352808,473.7541 -12.259693,397.6792 16.960195,314.8087 75.745078,263.9887 120.77988,226.5307 117.00705,165.4818 138.11462,115.926 159.14734,62.63849 222.95352,59.43114 271.32116,50.75262 323.1203,45.53535 373.60272,32.66718 421.2258,11.71398 470.32482,-5.51701 532.30579,-6.28725 570.64351,34.1763 c 41.17586,39.33876 92.31042,66.41751 148.93344,74.39623 51.82018,9.23604 97.56787,50.76957 98.82107,105.72847 0.89047,46.2158 26.05118,84.1722 50.98152,120.9493 31.23179,48.6026 1.43845,103.0376 1.07617,154.8563 -1.26737,57.7498 6.44343,124.9022 -38.22173,169.8219 -39.82813,25.5133 -76.5681,55.886 -106.82878,92.6821 -43.5641,52.4852 -104.94261,97.8542 -176.51864,93.6413 -59.74866,-1.8116 -119.84457,-10.5827 -179.11224,1.7969 -23.11191,2.6678 -48.3423,4.381 -69.18432,-8.0088 z"
     fill="#b12d2d"
     stroke-width="0"
     id="path1"
     style="fill:#ae2626;fill-opacity:1" />
  <path
     d="M 1.0562712,461.25247 C -166.10712,-232.90405 1154.2943,-188.78701 867.50118,587.32634 859.91112,525.75216 867.95807,448.80975 867.41213,387.63925 856.25061,331.41631 806.43984,289.82547 805.42046,230.29759 799.8948,184.49291 767.94605,143.95023 721.8464,135.02507 671.84499,120.8278 616.21634,111.99784 580.0101,70.52921 543.18554,34.335337 488.80754,12.707183 438.84622,33.23357 382.39302,50.789734 326.70468,73.253422 266.82141,75.390401 217.75103,77.428559 161.68688,101.21538 153.08144,155.17084 139.27165,203.93161 126.80344,258.01625 83.905221,290.04277 19.802757,351.62733 4.8931499,457.71564 55.013897,532.62123 c 26.243123,34.51053 51.854673,69.4885 61.017543,112.99661 9.97297,36.10937 32.88263,71.80791 71.47224,80.81839 50.26477,22.22426 77.80923,73.92551 120.09199,106.02821 19.21626,7.69365 65.81884,16.55152 17.3668,14.76575 C 26.600476,846.4689 21.922275,787.5558 1.0562712,461.25247 Z"
     fill="#861718"
     stroke-width="0"
     id="path2"
     style="fill:#310808;fill-opacity:1;filter:url(#filter27)"
     mask="url(#mask27)" />
  <path
     d="m305.62,842.37c.28.22.56.44.83.66-.6.18-.75-.19-.83-.66Z"
     fill="#b12d2d"
     stroke-width="0"
     id="path3" />
  <path
     d="M 307.69656,126.45297 C 59.086261,266.39352 106.78407,471.41182 157.31727,605.8191 61.757752,413.96391 105.26307,137.46386 404.45997,85.205976 461.21986,75.292264 563.19796,91.785623 591.11539,98.742473 554.21012,95.19413 413.81082,66.722183 307.69656,126.45297 Z"
     fill="#fefefe"
     stroke-width="0"
     id="path5"
     style="mix-blend-mode:normal;filter:url(#filter16)" />
  <path
     d="m 546.39395,831.78037 c 31.57641,-1.29273 63.99045,-6.89852 90.86229,-24.5373 45.39807,-27.06138 77.88062,-69.68516 114.0318,-107.15895 15.04215,-15.64064 33.03373,-27.83611 51.3781,-39.17172 15.09767,-9.99272 31.10867,-21.67232 42.36911,-36.65024 4.64994,-6.18507 20.46101,-30.57356 24.16293,-37.6607 -6.96167,29.75464 -12.61476,46.83385 -30.97003,71.23866 -11.5095,15.30281 -31.00131,23.94118 -44.93632,36.1319 -43.8251,31.16772 -72.88138,77.87691 -114.20954,111.80643 -19.13713,15.93928 -42.71439,26.68999 -67.73554,28.27315 -18.46076,1.87779 -37.11043,1.6648 -55.58376,0.47135 -3.22168,-0.50702 -6.40645,-1.36123 -9.36904,-2.74258 z"
     fill="#fefefe"
     stroke-width="0"
     id="path6"
     style="mix-blend-mode:normal;filter:url(#filter14)"
     mask="url(#mask16)" />
  <path
     d="m 439.93,815.95 c -10.69,1.27 -21.33,2.91 -31.93,4.65 -19.07,3.12 -38.22,4.24 -57.5,3.52 -1.3,-0.05 -2.62,-0.4 -3.89,-0.76 -1.58,-0.45 -4.47,0.48 -4.27,-2.04 0.15,-1.78 3.07,-1.71 4.66,-1.79 23.05,-1.15 45.68,-5.98 68.71,-7.51 46.69909,-8.36777 108.1596,14.40103 121.51053,16.13265 C 504.28226,820.76647 473.08598,812.80099 439.93,815.95 Z"
     fill="#fefefe"
     stroke-width="0"
     id="path7"
     style="filter:url(#filter28)" />
  <path
     d="m482.97,100.53c-68.47,28.5-136.94,57-205.41,85.5"
     fill="#b12d2d"
     stroke-width="0"
     id="path8" />
  <path
     d="M 440.54144,95.830475 C 424.17749,97.428072 259.15713,116.4737 171.81422,266.00878 c -71.424,122.28464 -40.09969,244.85456 -31.6096,274.18188 6.67568,23.09669 53.34833,174.74288 208.087,232.496 169.68763,63.33331 316.62091,-43.26064 335.68937,-57.59337 C 719.16235,688.64166 820.75811,602.22307 828.74609,458.01711 836.09504,325.41657 759.28486,234.44483 736.14252,209.28269 618.43387,81.258109 453.76726,94.540986 440.54144,95.830475 Z"
     fill="#b12d2d"
     stroke-width="0"
     id="path17"
     style="fill:url(#radialGradient18)" />
  <path
     d="m 443.15,119.11 c -15.21,1.48 -168.62,19.07 -249.82,157.22 -66.4,112.97 -37.27,226.21 -29.39,253.3 6.21,21.34 49.6,161.45 193.44,214.8 157.74,58.51 294.35,-39.96 312.07,-53.21 32.7,-24.44 127.15,-104.28 134.58,-237.5 6.83,-122.5 -64.58,-206.55 -86.09,-229.8 C 608.51,105.64 455.43,117.91 443.14,119.1 Z"
     fill="#760909"
     stroke-width="0"
     id="path10"
     style="fill:url(#linearGradient20)" />
  <path
     d="m 445.8605,138.86 c -14.34,1.4 -158.95,18.09 -235.49,149.13 -62.59,107.16 -35.14,214.57 -27.7,240.27 5.85,20.24 46.75,153.13 182.35,203.74 148.7,55.5 277.46,-37.91 294.17,-50.47 30.83,-23.18 119.86,-98.91 126.86,-225.28 6.44,-116.2 -60.87,-195.92 -81.15,-217.97 -103.15,-112.19 -247.45,-100.55 -259.04,-99.42 z"
     fill="#b12d2d"
     stroke-width="0"
     id="path11"
     style="fill:url(#radialGradient26)" />
  <path
     d="m 601.55548,465.09 32.33181,65.04 60.61814,-181.09 -77.62196,75.72 7.2477,15.13 28.78802,-25.36 -20.53695,67.93 -47.16879,-98.45 -27.58184,31.44 8.31511,14.46 14.10047,-12.46 14.10047,29.58 -18.91448,18.26 -97.41172,-153.1 -98.68194,151.29 -19.54425,-18.61 13.86564,-29.32 12.99036,12.71 10.33252,-14.29 -26.6105,-31.94 -48.00137,97.58 -21.71109,-68.32 29.00149,25.9 8.1977,-14.99 -76.88545,-77.15 56.56199,182.17 32.83349,-64.44 54.83279,54.91 -37.64751,-1.47 7.55725,-14.99 -11.59205,-11.57 -27.1869,40.22 111.75769,7.77 -56.49794,-60.32 14.81563,-21.45 71.48436,82.02 69.14674,-80.73 14.66619,21.72 -58.23782,59.26 112.6223,-5.71 -25.26557,-40.7 -12.83025,11.35 8.50725,15.14 -38.96042,0.77 54.20301,-53.91 z m -123.76604,44.74 -57.9603,-69.54 57.9603,-89.84 57.66142,89.7 z"
     fill="#760909"
     stroke-width="0"
     id="path12" />
</svg>
