<?xml version="1.0" encoding="UTF-8" standalone="no"?>
<!-- Generator: Adobe Illustrator 28.0.0, SVG Export Plug-In . SVG Version: 6.00 Build 0)  -->

<svg
   version="1.1"
   id="Layer_1"
   x="0px"
   y="0px"
   viewBox="0 0 119.99999 120"
   xml:space="preserve"
   width="120"
   height="120"
   xmlns="http://www.w3.org/2000/svg"
   xmlns:svg="http://www.w3.org/2000/svg"><defs
   id="defs16" />&#10;<style
   type="text/css"
   id="style1">&#10;	.st0{fill:#333399;}&#10;	.st1{fill:#996633;}&#10;	.st2{fill:#993333;}&#10;</style>&#10;<g
   id="g16"
   transform="matrix(0.39730864,0,0,0.39730864,-48.457311,-67.943313)">&#10;	<polygon
   points="166.04,173.63 170.22,229.78 298.61,386.89 280.61,401.7 297.52,425.52 326,387.48 366.29,363 349.37,337.86 331.31,356.29 212.46,190.19 "
   id="polygon1" />&#10;	<polygon
   class="st0"
   points="285.58,403.8 297.77,418.81 324.01,384.46 360.19,360.77 348.88,344.71 "
   id="polygon2" />&#10;	<polygon
   class="st1"
   points="313.44,372.61 301.25,383.4 175.53,229.94 169.44,179.4 212.46,194.53 326.49,359.32 315.43,370.64 212.84,236.12 212.2,236 211.97,236.91 "
   id="polygon3" />&#10;	<polygon
   points="332.44,426.13 334.02,428.26 334.02,430.39 336.89,434.92 339.7,435.18 341.84,438.09 341.84,440.16 342.57,441.19 329.75,454.51 345.38,470.42 356.62,460.84 364.38,466.85 390.52,442.48 386.55,432.98 398.21,422.12 386.06,399.17 371.28,413.39 369.69,411.65 367.43,411.71 366.94,410.16 367.61,407.64 364.25,403.31 361.69,402.73 360.28,401.3 360.83,398.59 356.99,393.29 355,393.29 353.08,390.9 354.06,388.38 350.39,384.04 348.01,383.14 346.54,381.49 347.03,378.49 343.86,374.99 330.81,382.25 311.8,403.66 314.97,407.45 317.04,407.45 319.12,409.84 319.12,412.75 322.48,416.89 325.17,417.59 326.39,418.95 325.96,421.67 329.81,426.13 "
   id="polygon4" />&#10;	<polygon
   class="st0"
   points="393.49,420.5 385.66,406.55 335.63,454.61 346.85,465.61 "
   id="polygon5" />&#10;	<g
   id="g13">&#10;		<g
   id="g9">&#10;			<polygon
   points="384.58,179.4 331.68,198.68 215.41,364.97 196.27,351.67 177.94,374.43 222.29,391.48 256.81,423.6 276.4,400.48 253.75,388.11 381.27,228.57 "
   id="polygon6" />&#10;			<polygon
   class="st0"
   points="195.59,357.03 184.47,372.84 224.66,388.74 257.3,417.12 269.68,401.87 "
   id="polygon7" />&#10;			<polygon
   class="st1"
   points="233.19,375.35 219.49,366.56 332.97,203.84 379.95,184.23 377.09,229.75 249.53,384.3 235.63,376.73 337.17,241.42 337.11,240.78 336.18,240.81 "
   id="polygon8" />&#10;			<polygon
   points="186.85,408.19 185.23,410.3 183.18,410.88 179.61,414.87 180.12,417.64 177.9,420.49 175.91,421.06 175.12,422.04 158.81,413.32 147.75,432.7 160.03,440.9 156.35,450 186.91,468.53 194.98,462.12 208.6,470.4 227.38,452.46 209.67,442.1 210.92,440.1 210.24,437.94 211.6,437.05 214.21,437.01 217.47,432.6 217.33,429.98 218.32,428.24 221.08,428.03 225.13,422.88 224.59,420.98 226.37,418.47 229.06,418.73 232.23,414.02 232.46,411.48 233.65,409.62 236.67,409.28 239.16,405.27 228.64,394.69 202.86,382.22 200.08,386.3 200.64,388.3 198.91,390.95 196.11,391.74 193.03,396.1 193.09,398.87 192.11,400.42 189.38,400.75 186.14,405.66 "
   id="polygon9" />&#10;		</g>&#10;		<polygon
   points="384.58,179.4 331.68,198.68 215.41,364.97 196.27,351.67 177.94,374.43 222.29,391.48 256.81,423.6 276.4,400.48 253.75,388.11 381.27,228.57 "
   id="polygon10" />&#10;		<polygon
   class="st0"
   points="195.59,357.03 184.47,372.84 224.66,388.74 257.3,417.12 269.68,401.87 "
   id="polygon11" />&#10;		<polygon
   class="st1"
   points="233.19,375.35 219.49,366.56 332.97,203.84 379.95,184.23 377.09,229.75 249.53,384.3 235.63,376.73 337.17,241.42 337.11,240.78 336.18,240.81 "
   id="polygon12" />&#10;		<polygon
   points="186.85,408.19 185.23,410.3 183.18,410.88 179.61,414.87 180.12,417.64 177.9,420.49 175.91,421.06 175.12,422.04 158.81,413.32 147.75,432.7 160.03,440.9 156.35,450 186.91,468.53 194.98,462.12 208.6,470.4 227.38,452.46 209.67,442.1 210.92,440.1 210.24,437.94 211.6,437.05 214.21,437.01 217.47,432.6 217.33,429.98 218.32,428.24 221.08,428.03 225.13,422.88 224.59,420.98 226.37,418.47 229.06,418.73 232.23,414.02 232.46,411.48 233.65,409.62 236.67,409.28 239.16,405.27 228.64,394.69 202.86,382.22 200.08,386.3 200.64,388.3 198.91,390.95 196.11,391.74 193.03,396.1 193.09,398.87 192.11,400.42 189.38,400.75 186.14,405.66 "
   id="polygon13" />&#10;	</g>&#10;	<polygon
   class="st2"
   points="385.96,442.79 384.21,437.89 361.15,460.22 365.47,462.62 "
   id="polygon14" />&#10;	<polygon
   class="st0"
   points="209.32,464.75 220.72,453.54 161.21,417.89 153.54,431.61 "
   id="polygon15" />&#10;	<polygon
   class="st2"
   points="185.17,462.96 189.42,459.95 161.68,443.79 160.54,448.6 "
   id="polygon16" />&#10;</g>&#10;</svg>
