<?xml version="1.0" encoding="UTF-8"?>
<svg width="200" height="200" version="1.1" viewBox="0 0 200 200" xmlns="http://www.w3.org/2000/svg">
<style type="text/css">
	.st0{display:none;}
	.st1{fill:#F5841F;}
	.st2{fill:#E27625;}
	.st3{fill:#D7C1B3;}
	.st4{fill:#2F343B;}
	.st5{fill:#CC6228;}
	.st6{fill:#C0AD9E;}
	.st7{fill:#763E1A;}

	:root {
		background: #aeaeae;
	}

	@keyframes pulse-1 {
		0% {
			opacity: 1;
		}
		10% {
			opacity: 0;
		}
		50% {
			opacity: 0;
		}
		60% {
			opacity: 1;
		}
		100% {
			opacity: 1;
		}
	}
	@keyframes pulse-2 {
		0% {
			opacity: 0;
		}
		10% {
			opacity: 1;
		}
		50% {
			opacity: 1;
		}
		60% {
			opacity: 0;
		}
		100% {
			opacity: 0;
		}
	}
	#metamask {
		animation: 6s linear 0s infinite pulse-2;
	}
	#ethereum {
		animation: 6s linear 0s infinite pulse-1;
	}
</style>
<g id="metamask" transform="matrix(1.23212 0 0 1.23212 -26.107 -18.5295)">
	<path class="st1" d="m167.4 96.1 6.9-8.1-3-2.2 4.8-4.4-3.7-2.8 4.8-3.6-3.1-2.4 5-24.4-7.6-22.6-48.8 18.1h-40.7l-48.8-18.1 0.3 0.2-0.3-0.2-7.6 22.6 5.1 24.4-3.2 2.4 4.9 3.6-3.7 2.8 4.8 4.4-3 2.2 6.9 8.1-10.5 32.4 9.7 33.1 34.1-9.4v-0.1 0.1l6.6 5.4 13.5 9.2h23.1l13.5-9.2 6.6-5.4 34.2 9.4 9.8-33.1-10.6-32.4m-96.7 56"/>
	<polygon class="st2" points="171.5 25.6 111.6 69.7 122.7 43.7"/>
	<polygon class="st2" points="33.2 25.6 92.6 70.1 82 43.7"/>
	<polygon class="st2" points="150 127.9 134 152.1 168.2 161.5 178 128.4"/>
	<polygon class="st2" points="26.9 128.4 36.6 161.5 70.7 152.1 54.8 127.9"/>
	<polygon class="st2" points="68.9 86.9 59.4 101.2 93.2 102.7 92.1 66.5"/>
	<polygon class="st2" points="135.9 86.9 112.3 66.1 111.6 102.7 145.4 101.2"/>
	<polygon class="st2" points="70.7 152.1 91.2 142.3 73.5 128.7"/>
	<polygon class="st2" points="113.6 142.3 134 152.1 131.2 128.7"/>
	<polygon class="st3" points="134 152.1 113.6 142.3 115.3 155.5 115.1 161.1"/>
	<polygon class="st3" points="70.7 152.1 89.7 161.1 89.6 155.5 91.2 142.3"/>
	<polygon class="st4" points="90 119.9 73.1 115 85.1 109.5"/>
	<polygon class="st4" points="114.7 119.9 119.7 109.5 131.7 115"/>
	<polygon class="st5" points="70.7 152.1 73.7 127.9 54.8 128.4"/>
	<polygon class="st5" points="131.1 127.9 134 152.1 150 128.4"/>
	<polygon class="st5" points="114.7 119.9 119.7 109.5 131.7 115 145.4 101.2 111.6 102.7"/>
	<polygon class="st5" points="90 119.9 93.2 102.7 59.4 101.2 73.1 115 85.1 109.5"/>
	<polygon class="st2" points="59.4 101.2 73.5 128.7 73.1 115"/>
	<polygon class="st2" points="131.7 115 131.2 128.7 145.4 101.2"/>
	<polygon class="st2" points="93.2 102.7 90 119.9 94 140.3 94.9 113.5"/>
	<polygon class="st2" points="111.6 102.7 109.9 113.4 110.7 140.3 114.7 119.9"/>
	<polygon class="st1" points="113.6 142.3 131.2 128.7 131.7 115 114.7 119.9 110.7 140.3"/>
	<polygon class="st1" points="91.2 142.3 94 140.3 90 119.9 73.1 115 73.5 128.7"/>
	<polygon class="st6" points="115.1 161.1 115.3 155.5 113.7 154.2 91 154.2 89.6 155.5 89.7 161.1 70.7 152.1 77.3 157.5 90.8 166.8 113.9 166.8 127.4 157.5 134 152.1"/>
	<polygon class="st4" points="89.6 155.5 91 154.2 113.7 154.2 115.3 155.5 113.6 142.3 110.7 140.3 94 140.3 91.2 142.3"/>
	<polygon class="st7" points="179.1 48.2 171.5 25.6 113.6 68.2 135.9 86.9 167.4 96.1 174.3 88 171.3 85.8 176.1 81.5 172.4 78.6 177.2 75 174.1 72.6"/>
	<polygon class="st7" points="30.7 72.6 27.5 75 32.3 78.7 28.6 81.5 33.4 85.8 30.4 88 37.4 96.1 68.9 86.9 91.2 68.2 33.2 25.6 25.6 48.2"/>
	<polygon class="st1" points="167.4 96.1 135.9 86.9 145.4 101.2 131.2 128.7 150 128.4 178 128.4"/>
	<polygon class="st1" points="68.9 86.9 37.4 96.1 26.9 128.4 54.8 128.4 73.5 128.7 59.4 101.2"/>
	<polygon class="st1" points="122.7 43.7 82 43.7 91.2 68.2 93.2 102.7 94 113.5 94 140.3 110.7 140.3 110.8 113.5 111.6 102.7 113.6 68.2"/>
</g>
<g id="ethereum" transform="matrix(.149838 0 0 .149838 41.2359 4.30016)">
    <polygon points="784.13 650.54 392.07 0 383.5 29.11 383.5 873.74 392.07 882.29" fill="#343434"/>
    <polygon points="392.07 882.29 392.07 472.33 392.07 0 0 650.54" fill="#8c8c8c"/>
    <polygon points="784.37 724.89 392.07 956.52 387.24 962.41 387.24 1263.28 392.07 1277.38" fill="#3c3c3b"/>
    <polygon points="0 724.89 392.07 1277.38 392.07 956.52" fill="#8c8c8c"/>
    <polygon points="392.07 472.33 392.07 882.29 784.13 650.54" fill="#141414"/>
    <polygon points="392.07 472.33 0 650.54 392.07 882.29" fill="#393939"/>
</g>
</svg>
