<?xml version="1.0" encoding="UTF-8" standalone="no"?>
<!-- Created with Inkscape (http://www.inkscape.org/) -->

<svg
   width="48"
   height="48"
   viewBox="0 0 48 48"
   version="1.1"
   id="svg1"
   xmlns="http://www.w3.org/2000/svg"
   xmlns:svg="http://www.w3.org/2000/svg">
  <defs
     id="defs1" />
  <g
     id="layer1">
    <path
       style="fill:none;stroke:#333399;stroke-width:4;stroke-linecap:round;stroke-linejoin:round;stroke-miterlimit:10;stroke-dasharray:none;stroke-opacity:1;paint-order:stroke markers fill"
       id="path3"
       d="m 24.000001,3.3129578 c 1.26053,-0.023216 4.413311,12.1706172 5.433273,12.9116662 1.041804,0.756917 13.820853,0.165549 14.241272,1.382729 0.411606,1.191661 -10.211156,7.958236 -10.60075,9.157275 -0.397936,1.224714 4.113432,13.195569 3.085742,13.971541 -1.006144,0.759704 -10.724154,-7.252157 -11.984898,-7.252159 -1.287742,-2e-6 -11.278612,7.989761 -12.334179,7.252158 C 10.807024,40.01403 15.423727,28.295852 15.034137,27.096813 14.636205,25.872097 3.9501402,18.839187 4.3254538,17.607352 4.6928991,16.401342 17.264187,17.170971 18.284152,16.429926 19.325958,15.673012 22.712477,3.3366713 24.000001,3.3129578 Z" />
  </g>
</svg>
