<?xml version="1.0" encoding="UTF-8" standalone="no"?>
<!-- Created with Inkscape (http://www.inkscape.org/) -->

<svg
   width="224"
   height="64"
   viewBox="0 0 224 64"
   version="1.1"
   id="svg1"
   xmlns="http://www.w3.org/2000/svg"
   xmlns:svg="http://www.w3.org/2000/svg">
  <defs
     id="defs1">
    <rect
       x="7.8932319"
       y="10.394533"
       width="120.57621"
       height="43.622784"
       id="rect1" />
  </defs>
  <g
     id="layer1">
    <path
       d="m 44.64587,46.208328 q 0.958333,0.458333 0.958333,1.333333 0,2.749999 -5.041664,7.249997 -8.541663,7.624997 -19.416659,7.624997 -8.791663,0 -14.0416608,-6.333331 -5.2083311,-6.374998 -5.2083311,-17.083326 0,-15.291661 9.7916629,-25.62499 9.791662,-10.3333287 24.291656,-10.3333287 7.374997,0 15.29166,2.7916655 l -2.791665,6.1249972 -0.791666,1.791666 q -1,2.124999 -2.458333,2.124999 -0.291666,0 -0.874999,-0.125 0.583333,-1.291666 0.583333,-2.124999 0,-2.791665 -3.749999,-4.8749977 -3.708331,-2.0833325 -8.666663,-2.0833325 -10.166662,0 -16.541659,8.0416632 -6.3333312,8.041663 -6.3333312,20.916658 0,9.958329 4.4583312,15.874993 4.458332,5.916665 11.916662,5.916665 5.374998,0 10.708329,-3.208332 5.374998,-3.249999 7.916663,-7.999997 z m 22.37499,-7.791663 q 9.249996,-17.54166 18.208326,-17.54166 2.333332,0 4.666665,1.083333 l -5.874998,6.416664 q -1.333333,-0.75 -3.416665,-0.75 -4.333332,0 -9.166663,7.041664 -4.791665,6.999997 -5.624998,14.583327 l -1.124999,10.166663 -6.166664,2.083332 0.125,-1.249999 0.291666,-2.708332 0.333333,-2.708333 2.166666,-19.833325 0.25,-2.166665 q 0.291667,-2.458333 0.291667,-3.999999 0,-2.541665 -1.416666,-2.541665 -3.333332,0 -6.624998,7.124997 -1.041666,-0.791667 -0.999999,-1.625 0.125,-2.541665 4.624998,-6.70833 4.541665,-4.208332 7.166663,-4.208332 3.541666,0 3.541666,4.666665 0,1.124999 -0.208334,3.041665 l -0.291666,2.916666 -0.375,3.499998 z m 29.916651,23.416656 q -9.374996,0 -9.374996,-12.416661 0,-9.999996 7.33333,-19.249992 7.333335,-9.291663 15.208325,-9.291663 9.5,0 9.5,12.416662 0,10.041662 -7.33333,19.291658 -7.33333,9.249996 -15.333329,9.249996 z m 5.041669,-4.666664 q 4.79166,0 7.99999,-5.333331 3.25,-5.333331 3.25,-13.291662 0,-12.999994 -8.08333,-12.999994 -4.75,0 -7.999996,5.374998 -3.208332,5.333331 -3.208332,13.249994 0,12.999995 8.041668,12.999995 z m 31.49998,4.541664 q 0,-9.666662 -1.37499,-18.374992 L 130.72917,34.5 q -1.16667,-7.541664 -4,-7.749997 -3.16667,-0.25 -4.41667,6.291664 -1.33333,-0.375 -1.33333,-1.666666 0,-3.166666 2.95833,-6.833331 3,-3.666665 5.5,-3.666665 3.66666,0 5.75,6.041664 2.125,6.041664 3.625,20.749992 l 0.25,2.541665 q 7.33333,-13.458327 10.95832,-24.583323 l 4.95834,-4.749998 q 0.5,5.624998 0.95833,8.70833 l 1,6.666664 0.70833,4.666664 1.83333,10.666663 1,-1.625 q 9.625,-15.749993 9.625,-20.208325 0,-2.416665 -2.54167,-4.124998 l 5.04167,-4.749998 q 3.08333,1.708333 3.08333,4.541665 0,3.416665 -4.75,11.291662 l -2.54166,4.208331 -3.125,5.458332 q -3.375,5.874997 -4.91667,10.458329 l -4.99999,4.999997 q -0.58334,-7.499996 -2.04167,-15.79166 l -0.70833,-3.916665 -1.79167,-9.749996 -1.95833,3.583332 q -5.33333,9.749996 -9,19.958325 z m 55.58332,-2.416665 -6.20833,2.541665 0.125,-1.166666 0.33333,-3.083332 0.33334,-2.916665 2.16666,-19.333326 0.25,-2.208332 q 0.25,-2.583332 0.25,-4.166665 0,-2.666665 -1.33333,-2.666665 -3.125,0 -6.70833,7.08333 -0.95834,-0.791666 -0.95834,-1.374999 0,-2.499999 4.54167,-6.791664 4.58333,-4.333332 7.20833,-4.333332 3.58333,0 3.58333,4.583332 0,1.166666 -0.20833,3.124998 l -0.33334,3.374999 -0.33333,2.833332 -0.33333,2.958332 q 4.91666,-7.33333 10.74999,-12.083328 5.875,-4.791665 10,-4.791665 4.04166,0 4.04166,5.624998 0,1.708332 -0.45833,5.124998 l -2.25,15.54166 q -0.66666,4.666665 -0.66666,7.374997 0,2.166666 1.16666,2.166666 2.875,0 7.08333,-7.666664 1,0.625 1,1.291666 0,2.708332 -4.66666,7.124997 -4.625,4.374998 -7.54167,4.374998 -3.24999,0 -3.24999,-4.666664 0,-3.416666 0.875,-9.45833 l 1.45833,-10.083329 q 0.70833,-4.916664 0.70833,-7.791663 0,-3.291666 -2.29166,-3.291666 -5.33334,0 -10.83333,7.249997 -5.45833,7.208331 -6.375,15.499994 z"
       style="fill:#333399"
       aria-label="Crown"
       id="path1" />
  </g>
</svg>
