<?xml version="1.0" encoding="UTF-8" standalone="no"?>
<!-- Created with Inkscape (http://www.inkscape.org/) -->

<svg
   width="84"
   height="64"
   viewBox="0 0 84 64"
   version="1.1"
   id="svg1"
   xmlns="http://www.w3.org/2000/svg"
   xmlns:svg="http://www.w3.org/2000/svg">
  <defs
     id="defs1">
    <rect
       x="7.8932319"
       y="10.394533"
       width="120.57621"
       height="43.622784"
       id="rect1" />
  </defs>
  <g
     id="layer1">
    <path
       d="m 29.479171,31.624998 h 8.916663 c 4.138887,0 8.402774,-0.375 12.791661,-1.124999 -3.277776,3.916665 -6.361108,5.874997 -9.249996,5.874997 l -3.541665,-0.08333 -4.041665,-0.08333 -3.208332,-0.08333 h -2.166666 l -0.333333,3.041666 -0.416666,3.666665 c -0.472222,3.916665 -1.333333,6.763886 -2.583333,8.541663 -1.222221,1.749999 -3.59722,3.458332 -7.124997,5.124998 l 11.541662,0.625 -4.999998,4.833331 -19.7499911,-0.916666 5.3749971,-5.166665 4.499999,0.5 c 3.388887,-2.138888 5.47222,-6.513886 6.249997,-13.124995 L 21.895841,39.166672 25.187506,9.5000175 H 23.77084 c -5.388887,0 -9.624996,1.1111105 -12.708328,3.3333315 -3.0555538,2.194444 -4.5833309,5.208332 -4.5833309,9.041663 0,2.305555 0.6388886,4.666665 1.9166659,7.083331 L 1.6458498,35.45833 C 1.0069612,33.291664 0.6875169,31.180554 0.6875169,29.124999 c 0,-7.777774 3.2361098,-14.069438 9.7083291,-18.874992 4.72222,-3.4999984 11.43055,-5.2499976 20.124991,-5.2499976 h 13.791661 c 5.166665,0 10.430551,-0.1805555 15.79166,-0.5416664 l -3.333331,8.541663 -0.666667,1.541666 c -0.694444,1.638888 -1.583332,2.458332 -2.666665,2.458332 -0.194445,0 -0.402778,-0.01389 -0.625,-0.04167 0.333333,-1.416666 0.5,-2.527777 0.5,-3.333332 0,-1.833333 -0.972222,-2.972221 -2.916666,-3.416665 C 48.451386,9.7361173 43.631943,9.5000075 35.937502,9.5000075 h -3.999998 z m 50.62498,17.29166 c 0.749999,0.444444 1.124999,0.874999 1.124999,1.291666 0,0.999999 -1.208333,2.972221 -3.624998,5.916664 -3.249999,3.999999 -6.263886,5.999998 -9.041663,5.999998 -2.027777,0 -3.041665,-1.347222 -3.041665,-4.041665 0,-1.138889 0.416666,-4.638887 1.249999,-10.499996 l 1.624999,-11.333329 0.416667,-2.874998 0.333333,-2.291666 c 0.138889,-0.972222 0.208333,-1.791666 0.208333,-2.458332 0,-1.388889 -0.388889,-2.083333 -1.166666,-2.083333 -2.166665,0 -4.499998,2.388888 -6.999997,7.166664 -0.527777,-0.472222 -0.791666,-0.944444 -0.791666,-1.416666 0,-1.694444 1.555555,-3.972221 4.666665,-6.833331 3.138887,-2.86111 5.638886,-4.291665 7.499996,-4.291665 2.083333,0 3.124999,1.444444 3.124999,4.333332 0,0.555555 -0.111111,1.694444 -0.333333,3.416665 l -0.375,2.791666 c -0.02778,0.222222 -0.180558,1.347221 -0.458333,3.374998 l -1.708333,11.916662 -0.416666,2.666665 c -0.361111,2.638888 -0.541667,4.402776 -0.541667,5.291665 0,1.194444 0.347222,1.791666 1.041667,1.791666 2.333332,0 4.736109,-2.61111 7.20833,-7.83333 z M 71.729154,15.791672 75.229153,7.1666752 c 3.11111,-1.2777773 5.666664,-3.0416654 7.666663,-5.2916645 0.277778,0.3888887 0.416667,0.7916663 0.416667,1.2083328 0,3.7222207 -3.86111,7.9583305 -11.583329,12.7083285 z"
       id="text2"
       style="fill:#333399"
       aria-label="Finance" />
  </g>
</svg>
