<?xml version="1.0" encoding="UTF-8" standalone="no"?>
<!-- Created with Inkscape (http://www.inkscape.org/) -->

<svg
   width="288"
   height="64"
   viewBox="0 0 288 64"
   version="1.1"
   id="svg1"
   xmlns="http://www.w3.org/2000/svg"
   xmlns:svg="http://www.w3.org/2000/svg">
  <defs
     id="defs1">
    <rect
       x="7.8932319"
       y="10.394533"
       width="120.57621"
       height="43.622784"
       id="rect1" />
  </defs>
  <g
     id="layer1">
    <path
       d="m 30.979228,31.624998 h 8.916663 q 6.208331,0 12.791661,-1.124999 -4.916664,5.874997 -9.249996,5.874997 l -3.541665,-0.08333 -4.041665,-0.08333 -3.208332,-0.08333 h -2.166666 l -0.333333,3.041666 -0.416666,3.666665 q -0.708333,5.874997 -2.583333,8.541663 -1.833332,2.624999 -7.124997,5.124998 l 11.541662,0.625 -4.999998,4.833331 -19.7499914,-0.916666 5.3749974,-5.166665 4.499999,0.5 q 5.083331,-3.208332 6.249997,-13.124995 l 0.458333,-4.083331 3.291665,-29.6666545 h -1.416666 q -8.08333,0 -12.708328,3.3333315 -4.5833312,3.291666 -4.5833312,9.041663 0,3.458332 1.9166659,7.083331 L 3.1459065,35.45833 q -0.9583329,-3.249999 -0.9583329,-6.333331 0,-11.666661 9.7083294,-18.874992 7.08333,-5.2499976 20.124991,-5.2499976 h 13.791661 q 7.749997,0 15.79166,-0.5416664 l -3.333331,8.541663 -0.666667,1.541666 q -1.041666,2.458332 -2.666665,2.458332 -0.291667,0 -0.625,-0.04167 0.5,-2.124999 0.5,-3.333332 0,-2.749999 -2.916666,-3.416665 Q 48.979221,9.5000075 37.437559,9.5000075 h -3.999998 z m 50.62498,17.29166 q 1.124999,0.666666 1.124999,1.291666 0,1.499999 -3.624998,5.916664 -4.874998,5.999998 -9.041663,5.999998 -3.041665,0 -3.041665,-4.041665 0,-1.708333 1.249999,-10.499996 l 1.624999,-11.333329 0.416667,-2.874998 0.333333,-2.291666 q 0.208333,-1.458333 0.208333,-2.458332 0,-2.083333 -1.166666,-2.083333 -3.249998,0 -6.999997,7.166664 -0.791666,-0.708333 -0.791666,-1.416666 0,-2.541666 4.666665,-6.833331 4.708331,-4.291665 7.499996,-4.291665 3.124999,0 3.124999,4.333332 0,0.833333 -0.333333,3.416665 l -0.375,2.791666 q -0.04167,0.333333 -0.458333,3.374998 l -1.708333,11.916662 -0.416666,2.666665 q -0.541667,3.958332 -0.541667,5.291665 0,1.791666 1.041667,1.791666 3.499998,0 7.20833,-7.83333 z M 73.229211,15.791672 76.72921,7.1666752 q 4.666665,-1.9166659 7.666663,-5.2916645 0.416667,0.5833331 0.416667,1.2083328 0,5.583331 -11.583329,12.7083285 z m 24.666656,43.791648 -6.208331,2.541666 0.125,-1.166667 0.333333,-3.083332 0.333333,-2.916665 2.166666,-19.333325 0.25,-2.208333 q 0.25,-2.583332 0.25,-4.166665 0,-2.666665 -1.333333,-2.666665 -3.124998,0 -6.70833,7.08333 -0.958333,-0.791666 -0.958333,-1.374999 0,-2.499999 4.541665,-6.791664 4.583331,-4.333332 7.20833,-4.333332 3.583333,0 3.583333,4.583332 0,1.166666 -0.20833,3.124998 l -0.33334,3.374999 -0.33333,2.833332 -0.33333,2.958332 q 4.91666,-7.33333 10.74999,-12.083328 5.875,-4.791665 10,-4.791665 4.04166,0 4.04166,5.624998 0,1.708333 -0.45833,5.124998 l -2.25,15.54166 q -0.66667,4.666665 -0.66667,7.374997 0,2.166666 1.16667,2.166666 2.875,0 7.08333,-7.666664 1,0.625 1,1.291666 0,2.708333 -4.66666,7.124997 -4.625,4.374999 -7.54167,4.374999 -3.25,0 -3.25,-4.666665 0,-3.416665 0.875,-9.45833 l 1.45834,-10.083329 q 0.70833,-4.916664 0.70833,-7.791663 0,-3.291665 -2.29167,-3.291665 -5.33333,0 -10.83333,7.249997 -5.458327,7.20833 -6.374994,15.499993 z M 160.72917,44.499993 q -4.70833,7.749997 -10.375,12.708328 -5.62499,4.916665 -9.79166,4.916665 -5.70833,0 -5.70833,-9.20833 0,-12.666661 8.29166,-21.916657 8.33333,-9.291663 19.70833,-9.291663 4.33333,0 7.37499,1.083333 -0.20833,0.749999 -0.25,0.916666 l -0.5,2.208332 q -0.49999,2.291666 -0.54166,2.666666 l -2.66667,18.416659 -0.375,2.666665 q -0.54166,3.958332 -0.54166,5.291665 0,1.791666 1.04166,1.791666 3.5,0 7.16667,-7.83333 1.125,0.666666 1.125,1.333333 0,1.458332 -3.58334,5.874997 -4.87499,5.999998 -9.04166,5.999998 -3.04166,0 -3.04166,-4.083332 0,-1.25 0.29166,-3.458332 l 0.41667,-3.333332 0.54167,-3.666665 z m 2.375,-16.54166 q -3.79167,-2.124999 -7.66667,-2.124999 -5.83333,0 -9.79166,7.124997 -3.95833,7.124997 -3.95833,17.666659 0,5.416665 3.20833,5.416665 3.70833,0 8.95833,-5.666665 7.08333,-7.624996 8.58333,-17.916659 z m 26.74999,31.624987 -6.20833,2.541666 0.125,-1.166667 0.33334,-3.083332 0.33333,-2.916665 2.16667,-19.333325 0.25,-2.208333 q 0.25,-2.583332 0.25,-4.166665 0,-2.666665 -1.33334,-2.666665 -3.125,0 -6.70833,7.08333 -0.95833,-0.791666 -0.95833,-1.374999 0,-2.499999 4.54166,-6.791664 4.58334,-4.333332 7.20833,-4.333332 3.58334,0 3.58334,4.583332 0,1.166666 -0.20834,3.124998 l -0.33333,3.374999 -0.33333,2.833332 -0.33334,2.958332 q 4.91667,-7.33333 10.75,-12.083328 5.875,-4.791665 9.99999,-4.791665 4.04167,0 4.04167,5.624998 0,1.708333 -0.45833,5.124998 l -2.25,15.54166 q -0.66667,4.666665 -0.66667,7.374997 0,2.166666 1.16667,2.166666 2.875,0 7.08333,-7.666664 1,0.625 1,1.291666 0,2.708333 -4.66667,7.124997 -4.625,4.374999 -7.54166,4.374999 -3.25,0 -3.25,-4.666665 0,-3.416665 0.875,-9.45833 l 1.45833,-10.083329 q 0.70834,-4.916664 0.70834,-7.791663 0,-3.291665 -2.29167,-3.291665 -5.33333,0 -10.83333,7.249997 -5.45833,7.20833 -6.375,15.499993 z m 65.95831,-37.333318 -4.75,5.708331 q -3.33333,-1.374999 -6.375,-1.374999 -5.45833,0 -8.625,4.624998 -3.125,4.624998 -3.125,12.666661 0,5.666664 2.25,9.124996 2.29167,3.458332 5.95833,3.458332 6.20834,0 9.75,-8.124996 0.91667,0.999999 0.91667,1.874999 0,3.458332 -5.41667,7.70833 -5.375,4.208332 -9.87499,4.208332 -4.33334,0 -7.125,-3.458332 -2.75,-3.499999 -2.75,-9.041663 0,-10.791662 7.33333,-19.624992 7.33333,-8.83333 16.29166,-8.83333 3.25,0 5.54167,1.083333 z m 28.9583,25.541656 q 1.04167,0.708333 1.04167,1.666666 0,1.291666 -2.66666,4.416665 -7.125,8.249997 -14.08333,8.249997 -4.25,0 -7,-3.374999 -2.75,-3.374999 -2.75,-8.624996 0,-9.499996 7.16667,-19.208326 7.20833,-9.749996 14.24999,-9.749996 5.08333,0 5.08333,5.458331 0,6.124998 -5.95833,11.958329 -5.91666,5.833331 -14.45833,8.124996 0.83334,10.041663 7.91667,10.041663 6.99999,0 11.45832,-8.95833 z m -19.20832,-6.166664 q 1.20833,0.416667 2.20833,0.416667 5.16667,0 9.04166,-3.166666 3.875,-3.166665 3.875,-7.416663 0,-4.874998 -4.95833,-4.874998 -3.58333,0 -6.5,4.291665 -2.87499,4.249998 -3.66666,10.749995 z"
       id="text2"
       style="fill:#333399"
       aria-label="Finance" />
  </g>
</svg>
